<?xml version="1.0" standalone="no"?>
<!DOCTYPE svg PUBLIC "-//W3C//DTD SVG 20010904//EN"
 "http://www.w3.org/TR/2001/REC-SVG-20010904/DTD/svg10.dtd">
<svg version="1.0" xmlns="http://www.w3.org/2000/svg"
 width="181.000000pt" height="186.000000pt" viewBox="0 0 181.000000 186.000000"
 preserveAspectRatio="xMidYMid meet">

<g transform="translate(0.000000,186.000000) scale(0.100000,-0.100000)"
fill="#000000" stroke="none">
<path d="M0 930 l0 -930 905 0 905 0 0 930 0 930 -905 0 -905 0 0 -930z m1116
730 c269 -69 469 -265 545 -536 32 -111 32 -277 0 -388 -95 -338 -381 -556
-731 -556 -350 0 -637 218 -731 556 -31 111 -31 277 0 388 75 268 274 465 541
535 105 28 270 28 376 1z"/>
<path d="M762 1147 c-157 -157 -174 -184 -131 -207 18 -10 33 1 139 100 l120
112 2 -287 c3 -262 5 -289 21 -299 12 -8 22 -8 35 0 15 10 17 37 20 299 l2
287 120 -112 c106 -99 121 -110 139 -100 43 23 26 50 -132 208 -84 83 -159
152 -167 152 -8 0 -84 -69 -168 -153z"/>
</g>
</svg>
